<mxfile host="app.diagrams.net" modified="2024-05-06T21:25:01.504Z" agent="Mozilla/5.0 (Windows NT 10.0; Win64; x64) AppleWebKit/537.36 (KHTML, like Gecko) Chrome/124.0.0.0 Safari/537.36" version="24.3.1" etag="q3lggDhlQ_ZWDaHMhhkV" type="github">
  <diagram name="Page-1" id="-5HOhkj0r-ivvZaTs-C2">
    <mxGraphModel>
      <root>
        <mxCell id="0" />
        <mxCell id="1" parent="0" />
      </root>
    </mxGraphModel>
  </diagram>
</mxfile>
